# xmcd CD database file
#
# Track frame offsets:
#	150
#	33319
#	63266
#	93587
#	138866
#
# Disc length: 2227 seconds
#
# Revision: 1
# Processed by: cddbd v1.5.1PL2 Copyright (c) Steve Scherf et al.
# Submitted via: CDex 1.51
#
DISCID=3a08b105
DTITLE=Bobby Hutcherson - Dialogue
DYEAR=1965
DGENRE=Jazz
TTITLE0=Catta
TTITLE1=Idle While
TTITLE2=Les Noires Marchent
TTITLE3=Dialogue
TTITLE4=Ghetto Lights
EXTD=YEAR: 1965
EXTT0=
EXTT1=
EXTT2=
EXTT3=
EXTT4=
PLAYORDER=
